<svg xmlns="http://www.w3.org/2000/svg" xml:space="preserve" style="fill-rule:evenodd;clip-rule:evenodd;stroke-linecap:round;stroke-linejoin:round;stroke-miterlimit:1.5" viewBox="0 0 13 9"><g id="Email-Icon"><path d="M12.614 2.141v4.281c0 1.181-.959 2.14-2.14 2.14H2.141A2.14 2.14 0 0 1 0 6.422V2.141c0-1.182.959-2.141 2.141-2.141h8.333c1.181 0 2.14.959 2.14 2.141m-1.1 0a1.04 1.04 0 0 0-1.04-1.041H2.141A1.04 1.04 0 0 0 1.1 2.141v4.281c0 .574.466 1.04 1.041 1.04h8.333a1.04 1.04 0 0 0 1.04-1.04Z" style="fill:#f54ec2"/><path d="m.992 1.192 5.315 3.089 5.315-3.089" style="fill:none;stroke:#f54ec2;stroke-width:1.1px"/></g></svg>