<?xml version="1.0" encoding="UTF-8" standalone="no"?><!DOCTYPE svg><svg xmlns="http://www.w3.org/2000/svg" xmlns:xlink="http://www.w3.org/1999/xlink" xmlns:serif="http://www.serif.com/" width="100%" height="100%" viewBox="0 0 13 9" version="1.1" xml:space="preserve" style="fill-rule: evenodd; clip-rule: evenodd; stroke-linecap: round; stroke-linejoin: round; stroke-miterlimit: 1.5"><g id="Email-Icon" serif:id="Email Icon"><path d="M12.614,2.141l0,4.281c0,1.181 -0.959,2.14 -2.14,2.14l-8.333,0c-1.182,0 -2.141,-0.959 -2.141,-2.14l-0,-4.281c-0,-1.182 0.959,-2.141 2.141,-2.141l8.333,-0c1.181,-0 2.14,0.959 2.14,2.141Zm-1.1,-0c0,-0.575 -0.466,-1.041 -1.04,-1.041l-8.333,-0c-0.575,-0 -1.041,0.466 -1.041,1.041l-0,4.281c-0,0.574 0.466,1.04 1.041,1.04l8.333,0c0.574,0 1.04,-0.466 1.04,-1.04l0,-4.281Z" style="fill: #f54ec2"/><path d="M0.992,1.192l5.315,3.089l5.315,-3.089" style="fill: none; stroke: #f54ec2; stroke-width: 1.1px"/></g></svg>