<svg xmlns="http://www.w3.org/2000/svg" xml:space="preserve" style="fill-rule:evenodd;clip-rule:evenodd;stroke-linejoin:round;stroke-miterlimit:2" viewBox="0 0 9 9"><g id="Insta-Icon"><path d="M8.787 2.13v4.261a2.13 2.13 0 0 1-2.13 2.13H2.13A2.13 2.13 0 0 1 0 6.391V2.13C0 .955.955 0 2.13 0h4.527c1.176 0 2.13.955 2.13 2.13m-.932 0c0-.661-.537-1.198-1.198-1.198H2.13C1.469.932.932 1.469.932 2.13v4.261c0 .661.537 1.198 1.198 1.198h4.527c.661 0 1.198-.537 1.198-1.198Z" style="fill:#f54ec2"/><path d="M4.43 2.27a2.161 2.161 0 0 1 0 4.321 2.161 2.161 0 0 1 0-4.321m0 .933a1.228 1.228 0 1 0 .002 2.456 1.228 1.228 0 0 0-.002-2.456" style="fill:#f54ec2"/><circle cx="6.737" cy="2.05" r=".586" style="fill:#f54ec2"/><path d="M6.737 1.465A.586.586 0 1 1 6.737070582815354 2.637.586.586 0 0 1 6.737 1.465m0 .932A.347.347 0 1 0 6.736634573542211 1.703.347.347 0 0 0 6.737 2.397" style="fill:#f54ec2"/></g></svg>