<?xml version="1.0" encoding="UTF-8" standalone="no"?><!DOCTYPE svg><svg xmlns="http://www.w3.org/2000/svg" xmlns:xlink="http://www.w3.org/1999/xlink" xmlns:serif="http://www.serif.com/" width="100%" height="100%" viewBox="0 0 9 9" version="1.1" xml:space="preserve" style="fill-rule: evenodd; clip-rule: evenodd; stroke-linejoin: round; stroke-miterlimit: 2"><g id="Insta-Icon" serif:id="Insta Icon"><path d="M8.787,2.13l0,4.261c0,1.176 -0.954,2.13 -2.13,2.13l-4.527,0c-1.175,0 -2.13,-0.954 -2.13,-2.13l0,-4.261c0,-1.175 0.955,-2.13 2.13,-2.13l4.527,0c1.176,0 2.13,0.955 2.13,2.13Zm-0.932,0c-0,-0.661 -0.537,-1.198 -1.198,-1.198l-4.527,0c-0.661,0 -1.198,0.537 -1.198,1.198l0,4.261c0,0.661 0.537,1.198 1.198,1.198l4.527,-0c0.661,-0 1.198,-0.537 1.198,-1.198l-0,-4.261Z" style="fill: #f54ec2"/><path d="M4.43,2.27c1.193,0 2.161,0.968 2.161,2.16c-0,1.193 -0.968,2.161 -2.161,2.161c-1.192,-0 -2.16,-0.968 -2.16,-2.161c0,-1.192 0.968,-2.16 2.16,-2.16Zm0,0.933c-0.677,-0 -1.227,0.55 -1.227,1.227c-0,0.678 0.55,1.228 1.227,1.228c0.678,0 1.228,-0.55 1.228,-1.228c0,-0.677 -0.55,-1.227 -1.228,-1.227Z" style="fill: #f54ec2"/><circle cx="6.737" cy="2.05" r="0.586" style="fill: #f54ec2"/><path d="M6.737,1.465c0.323,-0 0.586,0.262 0.586,0.585c-0,0.324 -0.263,0.586 -0.586,0.586c-0.323,0 -0.586,-0.262 -0.586,-0.586c0,-0.323 0.263,-0.585 0.586,-0.585Zm0,0.932c0.191,0 0.347,-0.155 0.347,-0.347c-0,-0.191 -0.156,-0.346 -0.347,-0.346c-0.191,-0 -0.347,0.155 -0.347,0.346c0,0.192 0.156,0.347 0.347,0.347Z" style="fill: #f54ec2"/></g></svg>